<svg width="24" height="24" viewBox="0 0 24 24" fill="none" xmlns="http://www.w3.org/2000/svg">
<path d="M23.3175 9.83706C23.4574 10.6425 23.5272 11.4586 23.526 12.2761C23.526 15.9271 22.221 19.0141 19.95 21.1036H19.953C17.967 22.9381 15.237 24.0001 12 24.0001C8.8174 24.0001 5.76516 22.7358 3.51472 20.4853C1.26428 18.2349 0 15.1827 0 12.0001C0 8.81746 1.26428 5.76521 3.51472 3.51478C5.76516 1.26434 8.8174 5.94081e-05 12 5.9408e-05C14.9789 -0.0348281 17.8558 1.08431 20.028 3.12306L16.602 6.54906C15.3636 5.36852 13.7107 4.72205 12 4.74906C8.8695 4.74906 6.21 6.86106 5.262 9.70506C4.75936 11.1953 4.75936 12.8093 5.262 14.2996H5.2665C6.219 17.1391 8.874 19.2511 12.0045 19.2511C13.6215 19.2511 15.0105 18.8371 16.0875 18.1051H16.083C16.7084 17.6908 17.2433 17.1541 17.6555 16.5273C18.0678 15.9006 18.3487 15.1969 18.4815 14.4586H12V9.83856H23.3175V9.83706Z" fill="black"/>
</svg>
